# This file uses meters as units for non-parametric coordinates.

mtllib DepthTerrain 01.mtl
g default
v -500.000000 -50.000000 100.000000
v -400.000000 -50.000000 100.000000
v -300.000000 -50.000000 100.000000
v -200.000000 -50.000000 100.000000
v -100.000000 -50.000000 100.000000
v 0.000000 -50.000000 100.000000
v 100.000000 -50.000000 100.000000
v 200.000000 -50.000000 100.000000
v 300.000000 -50.000000 100.000000
v 400.000000 -50.000000 100.000000
v 500.000000 -50.000000 100.000000
v -500.000000 50.000000 100.000000
v -400.000000 50.000000 100.000000
v -300.000000 50.000000 100.000000
v -200.000000 50.000000 100.000000
v -100.000000 50.000000 100.000000
v 0.000000 50.000000 100.000000
v 100.000000 50.000000 100.000000
v 200.000000 50.000000 100.000000
v 300.000000 50.000000 100.000000
v 400.000000 50.000000 100.000000
v 500.000000 50.000000 100.000000
v -500.000000 50.000000 0.000000
v -400.000000 50.000000 0.000000
v -300.000000 50.000000 0.000000
v -200.000000 50.000000 0.000000
v -100.000000 50.000000 0.000000
v 0.000000 50.000000 0.000000
v 100.000000 50.000000 0.000000
v 200.000000 50.000000 0.000000
v 300.000000 50.000000 0.000000
v 400.000000 50.000000 0.000000
v 500.000000 50.000000 0.000000
v -500.000000 50.000000 -100.000000
v -400.000000 50.000000 -100.000000
v -300.000000 50.000000 -100.000000
v -200.000000 50.000000 -100.000000
v -100.000000 50.000000 -100.000000
v 0.000000 50.000000 -100.000000
v 100.000000 50.000000 -100.000000
v 200.000000 50.000000 -100.000000
v 300.000000 50.000000 -100.000000
v 400.000000 50.000000 -100.000000
v 500.000000 50.000000 -100.000000
v -500.000000 -50.000000 -100.000000
v -400.000000 -50.000000 -100.000000
v -300.000000 -50.000000 -100.000000
v -200.000000 -50.000000 -100.000000
v -100.000000 -50.000000 -100.000000
v 0.000000 -50.000000 -100.000000
v 100.000000 -50.000000 -100.000000
v 200.000000 -50.000000 -100.000000
v 300.000000 -50.000000 -100.000000
v 400.000000 -50.000000 -100.000000
v 500.000000 -50.000000 -100.000000
v -500.000000 -50.000000 0.000000
v -400.000000 -50.000000 0.000000
v -300.000000 -50.000000 0.000000
v -200.000000 -50.000000 0.000000
v -100.000000 -50.000000 0.000000
v 0.000000 -50.000000 0.000000
v 100.000000 -50.000000 0.000000
v 200.000000 -50.000000 0.000000
v 300.000000 -50.000000 0.000000
v 400.000000 -50.000000 0.000000
v 500.000000 -50.000000 0.000000
v -300.000000 50.000008 0.000000
v -200.000000 50.000008 0.000000
v -200.000000 50.000008 -100.000000
v -300.000000 50.000008 -100.000000
v -100.000000 50.000008 0.000000
v -100.000000 50.000008 -100.000000
v 0.000000 50.000008 0.000000
v 0.000000 50.000008 -100.000000
v 100.000000 50.000008 0.000000
v 100.000000 50.000008 -100.000000
v 200.000000 50.000008 0.000000
v 200.000000 50.000008 -100.000000
v 299.999969 50.000252 0.000000
v 299.999969 50.000252 -100.000000
v -207.485184 200.000000 0.000000
v -200.000000 200.000000 0.000000
v -200.000000 200.000000 -100.000000
v -207.485184 200.000000 -100.000000
v -100.000000 200.000000 0.000000
v -100.000000 200.000000 -100.000000
v 0.000000 200.000000 0.000000
v 0.000000 200.000000 -100.000000
v 100.000000 200.000000 0.000000
v 100.000000 200.000000 -100.000000
v 200.000000 200.000000 0.000000
v 200.000000 200.000000 -100.000000
v 207.485229 200.000000 0.000000
v 207.485229 200.000000 -100.000000
vt 0.375000 0.000000
vt 0.400000 0.000000
vt 0.425000 0.000000
vt 0.450000 0.000000
vt 0.475000 0.000000
vt 0.500000 0.000000
vt 0.525000 0.000000
vt 0.550000 0.000000
vt 0.575000 0.000000
vt 0.600000 0.000000
vt 0.625000 0.000000
vt 0.375000 0.250000
vt 0.400000 0.250000
vt 0.425000 0.250000
vt 0.450000 0.250000
vt 0.475000 0.250000
vt 0.500000 0.250000
vt 0.525000 0.250000
vt 0.550000 0.250000
vt 0.575000 0.250000
vt 0.600000 0.250000
vt 0.625000 0.250000
vt 0.375000 0.375000
vt 0.400000 0.375000
vt 0.425000 0.375000
vt 0.450000 0.375000
vt 0.475000 0.375000
vt 0.500000 0.375000
vt 0.525000 0.375000
vt 0.550000 0.375000
vt 0.575000 0.375000
vt 0.600000 0.375000
vt 0.625000 0.375000
vt 0.375000 0.500000
vt 0.400000 0.500000
vt 0.425000 0.500000
vt 0.450000 0.500000
vt 0.475000 0.500000
vt 0.500000 0.500000
vt 0.525000 0.500000
vt 0.550000 0.500000
vt 0.575000 0.500000
vt 0.600000 0.500000
vt 0.625000 0.500000
vt 0.375000 0.750000
vt 0.400000 0.750000
vt 0.425000 0.750000
vt 0.450000 0.750000
vt 0.475000 0.750000
vt 0.500000 0.750000
vt 0.525000 0.750000
vt 0.550000 0.750000
vt 0.575000 0.750000
vt 0.600000 0.750000
vt 0.625000 0.750000
vt 0.375000 0.875000
vt 0.400000 0.875000
vt 0.425000 0.875000
vt 0.450000 0.875000
vt 0.475000 0.875000
vt 0.500000 0.875000
vt 0.525000 0.875000
vt 0.550000 0.875000
vt 0.575000 0.875000
vt 0.600000 0.875000
vt 0.625000 0.875000
vt 0.375000 1.000000
vt 0.400000 1.000000
vt 0.425000 1.000000
vt 0.450000 1.000000
vt 0.475000 1.000000
vt 0.500000 1.000000
vt 0.525000 1.000000
vt 0.550000 1.000000
vt 0.575000 1.000000
vt 0.600000 1.000000
vt 0.625000 1.000000
vt 0.875000 0.000000
vt 0.750000 0.000000
vt 0.875000 0.250000
vt 0.750000 0.250000
vt 0.125000 0.000000
vt 0.250000 0.000000
vt 0.125000 0.250000
vt 0.250000 0.250000
vt 0.425000 0.375000
vt 0.450000 0.375000
vt 0.450000 0.500000
vt 0.425000 0.500000
vt 0.475000 0.375000
vt 0.475000 0.500000
vt 0.500000 0.375000
vt 0.500000 0.500000
vt 0.525000 0.375000
vt 0.525000 0.500000
vt 0.550000 0.375000
vt 0.550000 0.500000
vt 0.575000 0.375000
vt 0.575000 0.500000
vt 0.425000 0.375000
vt 0.450000 0.375000
vt 0.450000 0.500000
vt 0.425000 0.500000
vt 0.475000 0.375000
vt 0.475000 0.500000
vt 0.500000 0.375000
vt 0.500000 0.500000
vt 0.525000 0.375000
vt 0.525000 0.500000
vt 0.550000 0.375000
vt 0.550000 0.500000
vt 0.575000 0.375000
vt 0.575000 0.500000
vn 0.000000 0.000000 1.000000
vn 0.000000 0.000000 1.000000
vn 0.000000 0.000000 1.000000
vn 0.000000 0.000000 1.000000
vn 0.000000 0.000000 1.000000
vn 0.000000 0.000000 1.000000
vn 0.000000 0.000000 1.000000
vn 0.000000 0.000000 1.000000
vn 0.000000 0.000000 1.000000
vn 0.000000 0.000000 1.000000
vn 0.000000 0.000000 1.000000
vn 0.000000 0.000000 1.000000
vn 0.000000 0.000000 1.000000
vn 0.000000 0.000000 1.000000
vn 0.000000 0.000000 1.000000
vn 0.000000 0.000000 1.000000
vn 0.000000 0.000000 1.000000
vn 0.000000 0.000000 1.000000
vn 0.000000 0.000000 1.000000
vn 0.000000 0.000000 1.000000
vn 0.000000 0.000000 1.000000
vn 0.000000 0.000000 1.000000
vn 0.000000 1.000000 0.000000
vn 0.000000 1.000000 0.000000
vn 0.000000 1.000000 0.000000
vn 0.000000 1.000000 0.000000
vn 0.000000 1.000000 0.000000
vn 0.000000 1.000000 0.000000
vn 0.000000 1.000000 0.000000
vn 0.000000 1.000000 0.000000
vn 0.000000 1.000000 0.000000
vn 0.000000 1.000000 0.000000
vn 0.000000 1.000000 0.000000
vn 0.000000 1.000000 0.000000
vn 0.000000 1.000000 0.000000
vn 0.000000 1.000000 0.000000
vn 0.000000 1.000000 0.000000
vn 0.000000 1.000000 0.000000
vn 0.000000 1.000000 0.000000
vn 0.000000 1.000000 0.000000
vn 0.000000 1.000000 0.000000
vn 0.000000 1.000000 0.000000
vn 0.000000 1.000000 0.000000
vn 0.000000 1.000000 0.000000
vn 0.000000 1.000000 0.000000
vn 0.000000 1.000000 0.000000
vn 0.000000 1.000000 0.000000
vn 0.000000 1.000000 0.000000
vn 0.000000 1.000000 0.000000
vn 0.000000 1.000000 0.000000
vn 0.000000 1.000000 0.000000
vn 0.000000 1.000000 0.000000
vn 0.000000 1.000000 0.000000
vn 0.000000 1.000000 0.000000
vn 0.000000 1.000000 0.000000
vn 0.000000 1.000000 0.000000
vn 0.000000 1.000000 0.000000
vn 0.000000 1.000000 0.000000
vn 0.000000 1.000000 0.000000
vn 0.000000 1.000000 0.000000
vn 0.000000 1.000000 0.000000
vn 0.000000 1.000000 0.000000
vn 0.000000 1.000000 0.000000
vn 0.000000 1.000000 0.000000
vn 0.000000 0.000000 -1.000000
vn 0.000000 0.000000 -1.000000
vn 0.000000 0.000000 -1.000000
vn 0.000000 0.000000 -1.000000
vn 0.000000 0.000000 -1.000000
vn 0.000000 0.000000 -1.000000
vn 0.000000 0.000000 -1.000000
vn 0.000000 0.000000 -1.000000
vn 0.000000 0.000000 -1.000000
vn 0.000000 0.000000 -1.000000
vn 0.000000 0.000000 -1.000000
vn 0.000000 0.000000 -1.000000
vn 0.000000 0.000000 -1.000000
vn 0.000000 0.000000 -1.000000
vn 0.000000 0.000000 -1.000000
vn 0.000000 0.000000 -1.000000
vn 0.000000 0.000000 -1.000000
vn 0.000000 0.000000 -1.000000
vn 0.000000 0.000000 -1.000000
vn 0.000000 0.000000 -1.000000
vn 0.000000 0.000000 -1.000000
vn 0.000000 0.000000 -1.000000
vn 0.000000 -1.000000 0.000000
vn 0.000000 -1.000000 0.000000
vn 0.000000 -1.000000 0.000000
vn 0.000000 -1.000000 0.000000
vn 0.000000 -1.000000 0.000000
vn 0.000000 -1.000000 0.000000
vn 0.000000 -1.000000 0.000000
vn 0.000000 -1.000000 0.000000
vn 0.000000 -1.000000 0.000000
vn 0.000000 -1.000000 0.000000
vn 0.000000 -1.000000 0.000000
vn 0.000000 -1.000000 0.000000
vn 0.000000 -1.000000 0.000000
vn 0.000000 -1.000000 0.000000
vn 0.000000 -1.000000 0.000000
vn 0.000000 -1.000000 0.000000
vn 0.000000 -1.000000 0.000000
vn 0.000000 -1.000000 0.000000
vn 0.000000 -1.000000 0.000000
vn 0.000000 -1.000000 0.000000
vn 0.000000 -1.000000 0.000000
vn 0.000000 -1.000000 0.000000
vn 0.000000 -1.000000 0.000000
vn 0.000000 -1.000000 0.000000
vn 0.000000 -1.000000 0.000000
vn 0.000000 -1.000000 0.000000
vn 0.000000 -1.000000 0.000000
vn 0.000000 -1.000000 0.000000
vn 0.000000 -1.000000 0.000000
vn 0.000000 -1.000000 0.000000
vn 0.000000 -1.000000 0.000000
vn 0.000000 -1.000000 0.000000
vn 0.000000 -1.000000 0.000000
vn 1.000000 0.000000 0.000000
vn 1.000000 0.000000 0.000000
vn 1.000000 0.000000 0.000000
vn 1.000000 0.000000 0.000000
vn 1.000000 0.000000 0.000000
vn 1.000000 0.000000 0.000000
vn -1.000000 0.000000 0.000000
vn -1.000000 0.000000 0.000000
vn -1.000000 0.000000 0.000000
vn -1.000000 0.000000 0.000000
vn -1.000000 0.000000 0.000000
vn -1.000000 0.000000 0.000000
vn 0.000000 0.000000 1.000000
vn 0.000000 0.000000 1.000000
vn 0.000000 0.000000 1.000000
vn 0.000000 0.000000 1.000000
vn 0.000000 0.000000 -1.000000
vn 0.000000 0.000000 -1.000000
vn 0.000000 0.000000 -1.000000
vn 0.000000 0.000000 -1.000000
vn -1.000000 0.000000 0.000000
vn -1.000000 0.000000 0.000000
vn -1.000000 0.000000 0.000000
vn -1.000000 0.000000 0.000000
vn 0.000000 0.000000 1.000000
vn 0.000000 0.000000 1.000000
vn 0.000000 0.000000 1.000000
vn 0.000000 0.000000 1.000000
vn 0.000000 0.000000 -1.000000
vn 0.000000 0.000000 -1.000000
vn 0.000000 0.000000 -1.000000
vn 0.000000 0.000000 -1.000000
vn 0.000000 0.000000 1.000000
vn 0.000000 0.000000 1.000000
vn 0.000000 0.000000 1.000000
vn 0.000000 0.000000 1.000000
vn 0.000000 0.000000 -1.000000
vn 0.000000 0.000000 -1.000000
vn 0.000000 0.000000 -1.000000
vn 0.000000 0.000000 -1.000000
vn 0.000000 0.000000 1.000000
vn 0.000000 0.000000 1.000000
vn 0.000000 0.000000 1.000000
vn 0.000000 0.000000 1.000000
vn 0.000000 0.000000 -1.000000
vn 0.000000 0.000000 -1.000000
vn 0.000000 0.000000 -1.000000
vn 0.000000 0.000000 -1.000000
vn 0.000000 0.000000 1.000000
vn 0.000000 0.000000 1.000000
vn 0.000000 0.000000 1.000000
vn 0.000000 0.000000 1.000000
vn 0.000000 0.000000 -1.000000
vn 0.000000 0.000000 -1.000000
vn 0.000000 0.000000 -1.000000
vn 0.000000 0.000000 -1.000000
vn 0.000000 0.000000 1.000000
vn 0.000000 0.000000 1.000000
vn 0.000000 0.000000 1.000000
vn 0.000000 0.000000 1.000000
vn 0.988177 0.153317 0.000000
vn 0.988177 0.153317 0.000000
vn 0.988177 0.153317 0.000000
vn 0.988177 0.153317 0.000000
vn 0.000000 0.000000 -1.000000
vn 0.000000 0.000000 -1.000000
vn 0.000000 0.000000 -1.000000
vn 0.000000 0.000000 -1.000000
vn 0.000000 0.000000 1.000000
vn 0.000000 0.000000 1.000000
vn 0.000000 0.000000 1.000000
vn 0.000000 0.000000 1.000000
vn 0.000000 0.000000 -1.000000
vn 0.000000 0.000000 -1.000000
vn 0.000000 0.000000 -1.000000
vn 0.000000 0.000000 -1.000000
vn -0.851133 0.524950 0.000000
vn -0.851133 0.524950 0.000000
vn -0.851133 0.524950 0.000000
vn -0.851133 0.524950 0.000000
vn 0.000000 0.000000 1.000000
vn 0.000000 0.000000 1.000000
vn 0.000000 0.000000 1.000000
vn 0.000000 0.000000 1.000000
vn 0.000000 0.000000 -1.000000
vn 0.000000 0.000000 -1.000000
vn 0.000000 0.000000 -1.000000
vn 0.000000 0.000000 -1.000000
vn 0.000000 0.000000 1.000000
vn 0.000000 0.000000 1.000000
vn 0.000000 0.000000 1.000000
vn 0.000000 0.000000 1.000000
vn 0.000000 0.000000 -1.000000
vn 0.000000 0.000000 -1.000000
vn 0.000000 0.000000 -1.000000
vn 0.000000 0.000000 -1.000000
vn 0.000000 0.000000 1.000000
vn 0.000000 0.000000 1.000000
vn 0.000000 0.000000 1.000000
vn 0.000000 0.000000 1.000000
vn 0.000000 0.000000 -1.000000
vn 0.000000 0.000000 -1.000000
vn 0.000000 0.000000 -1.000000
vn 0.000000 0.000000 -1.000000
vn 0.000000 0.000000 1.000000
vn 0.000000 0.000000 1.000000
vn 0.000000 0.000000 1.000000
vn 0.000000 0.000000 1.000000
vn 0.000000 0.000000 -1.000000
vn 0.000000 0.000000 -1.000000
vn 0.000000 0.000000 -1.000000
vn 0.000000 0.000000 -1.000000
vn 0.000000 0.000000 1.000000
vn 0.000000 0.000000 1.000000
vn 0.000000 0.000000 1.000000
vn 0.000000 0.000000 1.000000
vn 0.851133 0.524950 0.000000
vn 0.851133 0.524950 0.000000
vn 0.851133 0.524950 0.000000
vn 0.851133 0.524950 0.000000
vn 0.000000 0.000000 -1.000000
vn 0.000000 0.000000 -1.000000
vn 0.000000 0.000000 -1.000000
vn 0.000000 0.000000 -1.000000
s 1
g pCube1
usemtl initialShadingGroup
f 1/1/1 2/2/2 13/13/3 12/12/4
f 2/2/2 3/3/5 14/14/6 13/13/3
f 3/3/5 4/4/7 15/15/8 14/14/6
f 4/4/7 5/5/9 16/16/10 15/15/8
f 5/5/9 6/6/11 17/17/12 16/16/10
f 6/6/11 7/7/13 18/18/14 17/17/12
f 7/7/13 8/8/15 19/19/16 18/18/14
f 8/8/15 9/9/17 20/20/18 19/19/16
f 9/9/17 10/10/19 21/21/20 20/20/18
f 10/10/19 11/11/21 22/22/22 21/21/20
s 2
f 12/12/23 13/13/24 24/24/25 23/23/26
f 13/13/24 14/14/27 25/25/28 24/24/25
f 14/14/27 15/15/29 26/26/30 25/25/28
f 15/15/29 16/16/31 27/27/32 26/26/30
f 16/16/31 17/17/33 28/28/34 27/27/32
f 17/17/33 18/18/35 29/29/36 28/28/34
f 18/18/35 19/19/37 30/30/38 29/29/36
f 19/19/37 20/20/39 31/31/40 30/30/38
f 20/20/39 21/21/41 32/32/42 31/31/40
f 21/21/41 22/22/43 33/33/44 32/32/42
f 23/23/26 24/24/25 35/35/45 34/34/46
f 24/24/25 25/25/28 36/36/47 35/35/45
s 3
f 81/100/48 82/101/49 83/102/50 84/103/51
f 82/101/49 85/104/52 86/105/53 83/102/50
f 85/104/52 87/106/54 88/107/55 86/105/53
f 87/106/54 89/108/56 90/109/57 88/107/55
f 89/108/56 91/110/58 92/111/59 90/109/57
f 91/110/58 93/112/60 94/113/61 92/111/59
s 2
f 31/31/40 32/32/42 43/43/62 42/42/63
f 32/32/42 33/33/44 44/44/64 43/43/62
s 4
f 34/34/65 35/35/66 46/46/67 45/45/68
f 35/35/66 36/36/69 47/47/70 46/46/67
f 36/36/69 37/37/71 48/48/72 47/47/70
f 37/37/71 38/38/73 49/49/74 48/48/72
f 38/38/73 39/39/75 50/50/76 49/49/74
f 39/39/75 40/40/77 51/51/78 50/50/76
f 40/40/77 41/41/79 52/52/80 51/51/78
f 41/41/79 42/42/81 53/53/82 52/52/80
f 42/42/81 43/43/83 54/54/84 53/53/82
f 43/43/83 44/44/85 55/55/86 54/54/84
s 5
f 45/45/87 46/46/88 57/57/89 56/56/90
f 46/46/88 47/47/91 58/58/92 57/57/89
f 47/47/91 48/48/93 59/59/94 58/58/92
f 48/48/93 49/49/95 60/60/96 59/59/94
f 49/49/95 50/50/97 61/61/98 60/60/96
f 50/50/97 51/51/99 62/62/100 61/61/98
f 51/51/99 52/52/101 63/63/102 62/62/100
f 52/52/101 53/53/103 64/64/104 63/63/102
f 53/53/103 54/54/105 65/65/106 64/64/104
f 54/54/105 55/55/107 66/66/108 65/65/106
f 56/56/90 57/57/89 2/68/109 1/67/110
f 57/57/89 58/58/92 3/69/111 2/68/109
f 58/58/92 59/59/94 4/70/112 3/69/111
f 59/59/94 60/60/96 5/71/113 4/70/112
f 60/60/96 61/61/98 6/72/114 5/71/113
f 61/61/98 62/62/100 7/73/115 6/72/114
f 62/62/100 63/63/102 8/74/116 7/73/115
f 63/63/102 64/64/104 9/75/117 8/74/116
f 64/64/104 65/65/106 10/76/118 9/75/117
f 65/65/106 66/66/108 11/77/119 10/76/118
s 6
f 66/79/120 55/78/121 44/80/122 33/81/123
f 11/11/124 66/79/120 33/81/123 22/22/125
s 7
f 45/82/126 56/83/127 23/85/128 34/84/129
f 56/83/127 1/1/130 12/12/131 23/85/128
s off
f 25/25/132 26/26/133 68/87/134 67/86/135
f 37/37/136 36/36/137 70/89/138 69/88/139
f 36/36/140 25/25/141 67/86/142 70/89/143
f 26/26/144 27/27/145 71/90/146 68/87/147
f 38/38/148 37/37/149 69/88/150 72/91/151
f 27/27/152 28/28/153 73/92/154 71/90/155
f 39/39/156 38/38/157 72/91/158 74/93/159
f 28/28/160 29/29/161 75/94/162 73/92/163
f 40/40/164 39/39/165 74/93/166 76/95/167
f 29/29/168 30/30/169 77/96/170 75/94/171
f 41/41/172 40/40/173 76/95/174 78/97/175
f 30/30/176 31/31/177 79/98/178 77/96/179
f 31/31/180 42/42/181 80/99/182 79/98/183
f 42/42/184 41/41/185 78/97/186 80/99/187
f 67/86/188 68/87/189 82/101/190 81/100/191
f 69/88/192 70/89/193 84/103/194 83/102/195
f 70/89/196 67/86/197 81/100/198 84/103/199
f 68/87/200 71/90/201 85/104/202 82/101/203
f 72/91/204 69/88/205 83/102/206 86/105/207
f 71/90/208 73/92/209 87/106/210 85/104/211
f 74/93/212 72/91/213 86/105/214 88/107/215
f 73/92/216 75/94/217 89/108/218 87/106/219
f 76/95/220 74/93/221 88/107/222 90/109/223
f 75/94/224 77/96/225 91/110/226 89/108/227
f 78/97/228 76/95/229 90/109/230 92/111/231
f 77/96/232 79/98/233 93/112/234 91/110/235
f 79/98/236 80/99/237 94/113/238 93/112/239
f 80/99/240 78/97/241 92/111/242 94/113/243
