# This file uses meters as units for non-parametric coordinates.

mtllib Terrain 01 Front.mtl
g default
v -500.000000 -50.000000 50.000000
v -400.000000 -50.000000 50.000000
v -300.000000 -50.000000 50.000000
v -200.000000 -50.000000 50.000000
v -100.000000 -50.000000 50.000000
v 0.000000 -50.000000 50.000000
v 100.000000 -50.000000 50.000000
v 200.000000 -50.000000 50.000000
v 300.000000 -50.000000 50.000000
v 400.000000 -50.000000 50.000000
v 500.000000 -50.000000 50.000000
v -500.000000 50.000000 50.000000
v -400.000000 50.000000 50.000000
v -300.000000 50.000000 50.000000
v -200.000000 50.000000 50.000000
v -100.000000 50.000000 50.000000
v 0.000000 50.000000 50.000000
v 100.000000 50.000000 50.000000
v 200.000000 50.000000 50.000000
v 300.000000 50.000000 50.000000
v 400.000000 50.000000 50.000000
v 500.000000 50.000000 50.000000
v -500.000000 50.000000 -50.000000
v -400.000000 50.000000 -50.000000
v -300.000000 50.000000 -50.000000
v -200.000000 50.000000 -50.000000
v -100.000000 50.000000 -50.000000
v 0.000000 50.000000 -50.000000
v 100.000000 50.000000 -50.000000
v 200.000000 50.000000 -50.000000
v 300.000000 50.000000 -50.000000
v 400.000000 50.000000 -50.000000
v 500.000000 50.000000 -50.000000
v -500.000000 -50.000000 -50.000000
v -400.000000 -50.000000 -50.000000
v -300.000000 -50.000000 -50.000000
v -200.000000 -50.000000 -50.000000
v -100.000000 -50.000000 -50.000000
v 0.000000 -50.000000 -50.000000
v 100.000000 -50.000000 -50.000000
v 200.000000 -50.000000 -50.000000
v 300.000000 -50.000000 -50.000000
v 400.000000 -50.000000 -50.000000
v 500.000000 -50.000000 -50.000000
vt 0.375000 0.000000
vt 0.400000 0.000000
vt 0.425000 0.000000
vt 0.450000 0.000000
vt 0.475000 0.000000
vt 0.500000 0.000000
vt 0.525000 0.000000
vt 0.550000 0.000000
vt 0.575000 0.000000
vt 0.600000 0.000000
vt 0.625000 0.000000
vt 0.375000 0.250000
vt 0.400000 0.250000
vt 0.425000 0.250000
vt 0.450000 0.250000
vt 0.475000 0.250000
vt 0.500000 0.250000
vt 0.525000 0.250000
vt 0.550000 0.250000
vt 0.575000 0.250000
vt 0.600000 0.250000
vt 0.625000 0.250000
vt 0.375000 0.500000
vt 0.400000 0.500000
vt 0.425000 0.500000
vt 0.450000 0.500000
vt 0.475000 0.500000
vt 0.500000 0.500000
vt 0.525000 0.500000
vt 0.550000 0.500000
vt 0.575000 0.500000
vt 0.600000 0.500000
vt 0.625000 0.500000
vt 0.375000 0.750000
vt 0.400000 0.750000
vt 0.425000 0.750000
vt 0.450000 0.750000
vt 0.475000 0.750000
vt 0.500000 0.750000
vt 0.525000 0.750000
vt 0.550000 0.750000
vt 0.575000 0.750000
vt 0.600000 0.750000
vt 0.625000 0.750000
vt 0.375000 1.000000
vt 0.400000 1.000000
vt 0.425000 1.000000
vt 0.450000 1.000000
vt 0.475000 1.000000
vt 0.500000 1.000000
vt 0.525000 1.000000
vt 0.550000 1.000000
vt 0.575000 1.000000
vt 0.600000 1.000000
vt 0.625000 1.000000
vt 0.875000 0.000000
vt 0.875000 0.250000
vt 0.125000 0.000000
vt 0.125000 0.250000
vn 0.000000 0.000000 1.000000
vn 0.000000 0.000000 1.000000
vn 0.000000 0.000000 1.000000
vn 0.000000 0.000000 1.000000
vn 0.000000 0.000000 1.000000
vn 0.000000 0.000000 1.000000
vn 0.000000 0.000000 1.000000
vn 0.000000 0.000000 1.000000
vn 0.000000 0.000000 1.000000
vn 0.000000 0.000000 1.000000
vn 0.000000 0.000000 1.000000
vn 0.000000 0.000000 1.000000
vn 0.000000 0.000000 1.000000
vn 0.000000 0.000000 1.000000
vn 0.000000 0.000000 1.000000
vn 0.000000 0.000000 1.000000
vn 0.000000 0.000000 1.000000
vn 0.000000 0.000000 1.000000
vn 0.000000 0.000000 1.000000
vn 0.000000 0.000000 1.000000
vn 0.000000 0.000000 1.000000
vn 0.000000 0.000000 1.000000
vn 0.000000 1.000000 0.000000
vn 0.000000 1.000000 0.000000
vn 0.000000 1.000000 0.000000
vn 0.000000 1.000000 0.000000
vn 0.000000 1.000000 0.000000
vn 0.000000 1.000000 0.000000
vn 0.000000 1.000000 0.000000
vn 0.000000 1.000000 0.000000
vn 0.000000 1.000000 0.000000
vn 0.000000 1.000000 0.000000
vn 0.000000 1.000000 0.000000
vn 0.000000 1.000000 0.000000
vn 0.000000 1.000000 0.000000
vn 0.000000 1.000000 0.000000
vn 0.000000 1.000000 0.000000
vn 0.000000 1.000000 0.000000
vn 0.000000 1.000000 0.000000
vn 0.000000 1.000000 0.000000
vn 0.000000 1.000000 0.000000
vn 0.000000 1.000000 0.000000
vn 0.000000 1.000000 0.000000
vn 0.000000 1.000000 0.000000
vn 0.000000 0.000000 -1.000000
vn 0.000000 0.000000 -1.000000
vn 0.000000 0.000000 -1.000000
vn 0.000000 0.000000 -1.000000
vn 0.000000 0.000000 -1.000000
vn 0.000000 0.000000 -1.000000
vn 0.000000 0.000000 -1.000000
vn 0.000000 0.000000 -1.000000
vn 0.000000 0.000000 -1.000000
vn 0.000000 0.000000 -1.000000
vn 0.000000 0.000000 -1.000000
vn 0.000000 0.000000 -1.000000
vn 0.000000 0.000000 -1.000000
vn 0.000000 0.000000 -1.000000
vn 0.000000 0.000000 -1.000000
vn 0.000000 0.000000 -1.000000
vn 0.000000 0.000000 -1.000000
vn 0.000000 0.000000 -1.000000
vn 0.000000 0.000000 -1.000000
vn 0.000000 0.000000 -1.000000
vn 0.000000 0.000000 -1.000000
vn 0.000000 0.000000 -1.000000
vn 0.000000 -1.000000 0.000000
vn 0.000000 -1.000000 0.000000
vn 0.000000 -1.000000 0.000000
vn 0.000000 -1.000000 0.000000
vn 0.000000 -1.000000 0.000000
vn 0.000000 -1.000000 0.000000
vn 0.000000 -1.000000 0.000000
vn 0.000000 -1.000000 0.000000
vn 0.000000 -1.000000 0.000000
vn 0.000000 -1.000000 0.000000
vn 0.000000 -1.000000 0.000000
vn 0.000000 -1.000000 0.000000
vn 0.000000 -1.000000 0.000000
vn 0.000000 -1.000000 0.000000
vn 0.000000 -1.000000 0.000000
vn 0.000000 -1.000000 0.000000
vn 0.000000 -1.000000 0.000000
vn 0.000000 -1.000000 0.000000
vn 0.000000 -1.000000 0.000000
vn 0.000000 -1.000000 0.000000
vn 0.000000 -1.000000 0.000000
vn 0.000000 -1.000000 0.000000
vn 1.000000 0.000000 0.000000
vn 1.000000 0.000000 0.000000
vn 1.000000 0.000000 0.000000
vn 1.000000 0.000000 0.000000
vn -1.000000 0.000000 0.000000
vn -1.000000 0.000000 0.000000
vn -1.000000 0.000000 0.000000
vn -1.000000 0.000000 0.000000
s 1
g pCube3
usemtl initialShadingGroup
f 1/1/1 2/2/2 13/13/3 12/12/4
f 2/2/2 3/3/5 14/14/6 13/13/3
f 3/3/5 4/4/7 15/15/8 14/14/6
f 4/4/7 5/5/9 16/16/10 15/15/8
f 5/5/9 6/6/11 17/17/12 16/16/10
f 6/6/11 7/7/13 18/18/14 17/17/12
f 7/7/13 8/8/15 19/19/16 18/18/14
f 8/8/15 9/9/17 20/20/18 19/19/16
f 9/9/17 10/10/19 21/21/20 20/20/18
f 10/10/19 11/11/21 22/22/22 21/21/20
s 2
f 12/12/23 13/13/24 24/24/25 23/23/26
f 13/13/24 14/14/27 25/25/28 24/24/25
f 14/14/27 15/15/29 26/26/30 25/25/28
f 15/15/29 16/16/31 27/27/32 26/26/30
f 16/16/31 17/17/33 28/28/34 27/27/32
f 17/17/33 18/18/35 29/29/36 28/28/34
f 18/18/35 19/19/37 30/30/38 29/29/36
f 19/19/37 20/20/39 31/31/40 30/30/38
f 20/20/39 21/21/41 32/32/42 31/31/40
f 21/21/41 22/22/43 33/33/44 32/32/42
s 3
f 23/23/45 24/24/46 35/35/47 34/34/48
f 24/24/46 25/25/49 36/36/50 35/35/47
f 25/25/49 26/26/51 37/37/52 36/36/50
f 26/26/51 27/27/53 38/38/54 37/37/52
f 27/27/53 28/28/55 39/39/56 38/38/54
f 28/28/55 29/29/57 40/40/58 39/39/56
f 29/29/57 30/30/59 41/41/60 40/40/58
f 30/30/59 31/31/61 42/42/62 41/41/60
f 31/31/61 32/32/63 43/43/64 42/42/62
f 32/32/63 33/33/65 44/44/66 43/43/64
s 4
f 34/34/67 35/35/68 2/46/69 1/45/70
f 35/35/68 36/36/71 3/47/72 2/46/69
f 36/36/71 37/37/73 4/48/74 3/47/72
f 37/37/73 38/38/75 5/49/76 4/48/74
f 38/38/75 39/39/77 6/50/78 5/49/76
f 39/39/77 40/40/79 7/51/80 6/50/78
f 40/40/79 41/41/81 8/52/82 7/51/80
f 41/41/81 42/42/83 9/53/84 8/52/82
f 42/42/83 43/43/85 10/54/86 9/53/84
f 43/43/85 44/44/87 11/55/88 10/54/86
s off
f 11/11/89 44/56/90 33/57/91 22/22/92
f 34/58/93 1/1/94 12/12/95 23/59/96
